<?xml version="1.0" encoding="UTF-8"?>
<svg id="Calque_1" data-name="Calque 1" xmlns="http://www.w3.org/2000/svg" viewBox="0 0 1247.37 340.41">
  <defs>
    <style>
      .cls-1 {
        fill: none;
      }

      .cls-1, .cls-2, .cls-3, .cls-4, .cls-5, .cls-6, .cls-7 {
        stroke: #1d1d1b;
        stroke-miterlimit: 10;
        stroke-width: .25px;
      }

      .cls-2 {
        fill: #fff;
      }

      .cls-3 {
        fill: #e94e1b;
      }

      .cls-4 {
        fill: #f7c5dd;
      }

      .cls-5 {
        fill: #8ecbb5;
      }

      .cls-6 {
        fill: #e6332a;
      }

      .cls-7 {
        fill: #c8d972;
      }

      .cls-8 {
        fill: #1d1d1b;
        font-family: MyriadPro-Regular, 'Myriad Pro';
        font-size: 12px;
      }
    </style>
  </defs>
  <rect class="cls-7" x=".12" y=".12" width="113.39" height="85.04"/>
  <rect class="cls-7" x=".13" y="85.16" width="85.04" height="85.04"/>
  <rect class="cls-7" x="141.86" y="113.51" width="85.04" height="113.39"/>
  <rect class="cls-2" x="198.55" y=".13" width="56.69" height="85.04"/>
  <rect class="cls-2" x="198.55" y="255.24" width="56.69" height="85.04"/>
  <polygon class="cls-2" points="255.24 226.9 226.9 226.9 227.72 141.98 256.07 141.98 255.24 226.9"/>
  <rect class="cls-7" x="255.24" y="113.51" width="85.04" height="113.39"/>
  <rect class="cls-5" x="340.28" y="113.51" width="113.39" height="113.39"/>
  <rect class="cls-3" x="453.67" y="141.86" width="56.69" height="56.69"/>
  <rect class="cls-1" x="283.59" y="283.59" width="28.35" height="28.35"/>
  <rect class="cls-7" x="340.28" y=".13" width="113.39" height="85.04"/>
  <rect class="cls-7" x="340.28" y="255.24" width="113.39" height="85.04"/>
  <rect class="cls-7" x=".12" y="170.2" width="85.04" height="85.04"/>
  <rect class="cls-7" x=".13" y="255.24" width="113.39" height="85.04"/>
  <rect class="cls-7" x="113.51" y="255.24" width="85.04" height="85.04"/>
  <rect class="cls-7" x="113.51" y=".13" width="85.04" height="85.04"/>
  <rect class="cls-2" x="538.71" y=".13" width="28.35" height="85.04"/>
  <rect class="cls-4" x="538.71" y="255.24" width="28.35" height="85.04"/>
  <rect class="cls-7" x="567.05" y=".13" width="56.69" height="85.04"/>
  <rect class="cls-7" x="623.75" y=".13" width="56.69" height="85.04"/>
  <rect class="cls-7" x="680.44" y=".13" width="56.69" height="85.04"/>
  <rect class="cls-7" x="737.13" y=".13" width="56.69" height="85.04"/>
  <rect class="cls-2" x="793.83" y=".13" width="28.35" height="85.04"/>
  <rect class="cls-7" x="567.05" y="255.24" width="56.69" height="85.04"/>
  <rect class="cls-7" x="623.75" y="255.24" width="113.39" height="85.04"/>
  <rect class="cls-7" x="737.13" y="255.24" width="56.69" height="85.04"/>
  <rect class="cls-4" x="793.83" y="255.24" width="28.35" height="85.04"/>
  <rect class="cls-5" x="567.05" y="113.51" width="85.04" height="113.39"/>
  <rect class="cls-5" x="708.79" y="113.51" width="85.04" height="113.39"/>
  <rect class="cls-7" x="878.87" y=".13" width="85.04" height="85.04"/>
  <line class="cls-1" x1="255.24" y1=".12" x2="340.28" y2=".12"/>
  <line class="cls-1" x1="453.67" y1=".12" x2="538.71" y2=".12"/>
  <line class="cls-1" x1="822.17" y1=".12" x2="878.87" y2=".13"/>
  <line class="cls-1" x1="963.9" y1=".13" x2="1133.98" y2=".12"/>
  <line class="cls-1" x1="1133.98" y1="113.51" x2="1133.98" y2=".12"/>
  <line class="cls-1" x1="963.9" y1="340.28" x2="1020.6" y2="340.28"/>
  <line class="cls-1" x1="1020.6" y1="226.9" x2="1020.6" y2="340.28"/>
  <line class="cls-1" x1="878.87" y1="340.28" x2="822.17" y2="340.28"/>
  <line class="cls-1" x1="538.71" y1="340.28" x2="453.67" y2="340.28"/>
  <line class="cls-1" x1="340.28" y1="340.28" x2="255.24" y2="340.28"/>
  <line class="cls-1" x1="283.59" y1="309.1" x2="289.26" y2="309.1"/>
  <line class="cls-1" x1="289.26" y1="303.43" x2="289.26" y2="309.1"/>
  <line class="cls-1" x1="294.93" y1="303.43" x2="289.26" y2="303.43"/>
  <line class="cls-1" x1="294.93" y1="297.76" x2="294.93" y2="303.43"/>
  <line class="cls-1" x1="300.6" y1="297.76" x2="294.93" y2="297.76"/>
  <line class="cls-1" x1="300.6" y1="292.09" x2="300.6" y2="297.76"/>
  <line class="cls-1" x1="306.27" y1="292.09" x2="300.6" y2="292.09"/>
  <line class="cls-1" x1="306.27" y1="286.42" x2="306.27" y2="292.09"/>
  <line class="cls-1" x1="311.94" y1="286.42" x2="306.27" y2="286.42"/>
  <rect class="cls-7" x="878.87" y="255.24" width="85.04" height="85.04"/>
  <rect class="cls-5" x="878.87" y="113.51" width="85.04" height="113.39"/>
  <rect class="cls-3" x="850.52" y="141.86" width="28.35" height="56.69"/>
  <rect class="cls-5" x="1020.6" y="85.16" width="113.39" height="141.73"/>
  <rect class="cls-2" x="1020.6" y="28.47" width="56.69" height="28.35"/>
  <rect class="cls-3" x="1077.29" y="28.47" width="28.35" height="28.35"/>
  <rect class="cls-1" x="283.59" y="28.47" width="28.35" height="28.35"/>
  <line class="cls-1" x1="283.59" y1="53.98" x2="289.26" y2="53.98"/>
  <line class="cls-1" x1="289.26" y1="48.31" x2="289.26" y2="53.98"/>
  <line class="cls-1" x1="294.93" y1="48.31" x2="289.26" y2="48.31"/>
  <line class="cls-1" x1="294.93" y1="42.64" x2="294.93" y2="48.31"/>
  <line class="cls-1" x1="300.6" y1="42.64" x2="294.93" y2="42.64"/>
  <line class="cls-1" x1="300.6" y1="36.98" x2="300.6" y2="42.64"/>
  <line class="cls-1" x1="306.27" y1="36.98" x2="300.6" y2="36.98"/>
  <line class="cls-1" x1="306.27" y1="31.31" x2="306.27" y2="36.98"/>
  <line class="cls-1" x1="311.94" y1="31.31" x2="306.27" y2="31.31"/>
  <rect class="cls-1" x="482.01" y="28.47" width="28.35" height="28.35"/>
  <line class="cls-1" x1="482.01" y1="53.98" x2="487.68" y2="53.98"/>
  <line class="cls-1" x1="487.68" y1="48.31" x2="487.68" y2="53.98"/>
  <line class="cls-1" x1="493.35" y1="48.31" x2="487.68" y2="48.31"/>
  <line class="cls-1" x1="493.35" y1="42.64" x2="493.35" y2="48.31"/>
  <line class="cls-1" x1="499.02" y1="42.64" x2="493.35" y2="42.64"/>
  <line class="cls-1" x1="499.02" y1="36.98" x2="499.02" y2="42.64"/>
  <line class="cls-1" x1="504.69" y1="36.98" x2="499.02" y2="36.98"/>
  <line class="cls-1" x1="504.69" y1="31.31" x2="504.69" y2="36.98"/>
  <line class="cls-1" x1="510.36" y1="31.31" x2="504.69" y2="31.31"/>
  <rect class="cls-1" x="482.01" y="283.59" width="28.35" height="28.35"/>
  <line class="cls-1" x1="482.01" y1="309.1" x2="487.68" y2="309.1"/>
  <line class="cls-1" x1="487.68" y1="303.43" x2="487.68" y2="309.1"/>
  <line class="cls-1" x1="493.35" y1="303.43" x2="487.68" y2="303.43"/>
  <line class="cls-1" x1="493.35" y1="297.76" x2="493.35" y2="303.43"/>
  <line class="cls-1" x1="499.02" y1="297.76" x2="493.35" y2="297.76"/>
  <line class="cls-1" x1="499.02" y1="292.09" x2="499.02" y2="297.76"/>
  <line class="cls-1" x1="504.69" y1="292.09" x2="499.02" y2="292.09"/>
  <line class="cls-1" x1="504.69" y1="286.42" x2="504.69" y2="292.09"/>
  <line class="cls-1" x1="510.36" y1="286.42" x2="504.69" y2="286.42"/>
  <rect class="cls-1" x="652.09" y="170.2" width="28.35" height="28.35"/>
  <line class="cls-1" x1="652.09" y1="195.72" x2="657.76" y2="195.72"/>
  <line class="cls-1" x1="657.76" y1="190.05" x2="657.76" y2="195.72"/>
  <line class="cls-1" x1="663.43" y1="190.05" x2="657.76" y2="190.05"/>
  <line class="cls-1" x1="663.43" y1="184.38" x2="663.43" y2="190.05"/>
  <line class="cls-1" x1="669.1" y1="184.38" x2="663.43" y2="184.38"/>
  <line class="cls-1" x1="669.1" y1="178.71" x2="669.1" y2="184.38"/>
  <line class="cls-1" x1="674.77" y1="178.71" x2="669.1" y2="178.71"/>
  <line class="cls-1" x1="674.77" y1="173.04" x2="674.77" y2="178.71"/>
  <line class="cls-1" x1="680.44" y1="173.04" x2="674.77" y2="173.04"/>
  <rect class="cls-1" x="680.44" y="141.86" width="28.35" height="28.35"/>
  <line class="cls-1" x1="680.44" y1="167.37" x2="686.11" y2="167.37"/>
  <line class="cls-1" x1="686.11" y1="161.7" x2="686.11" y2="167.37"/>
  <line class="cls-1" x1="691.78" y1="161.7" x2="686.11" y2="161.7"/>
  <line class="cls-1" x1="691.78" y1="156.03" x2="691.78" y2="161.7"/>
  <line class="cls-1" x1="697.45" y1="156.03" x2="691.78" y2="156.03"/>
  <line class="cls-1" x1="697.45" y1="150.36" x2="697.45" y2="156.03"/>
  <line class="cls-1" x1="703.12" y1="150.36" x2="697.45" y2="150.36"/>
  <line class="cls-1" x1="703.12" y1="144.69" x2="703.12" y2="150.36"/>
  <line class="cls-1" x1="708.79" y1="144.69" x2="703.12" y2="144.69"/>
  <rect class="cls-1" x="850.52" y="283.59" width="28.35" height="28.35"/>
  <line class="cls-1" x1="850.52" y1="309.1" x2="856.19" y2="309.1"/>
  <line class="cls-1" x1="856.19" y1="303.43" x2="856.19" y2="309.1"/>
  <line class="cls-1" x1="861.86" y1="303.43" x2="856.19" y2="303.43"/>
  <line class="cls-1" x1="861.86" y1="297.76" x2="861.86" y2="303.43"/>
  <line class="cls-1" x1="867.53" y1="297.76" x2="861.86" y2="297.76"/>
  <line class="cls-1" x1="867.53" y1="292.09" x2="867.53" y2="297.76"/>
  <line class="cls-1" x1="873.2" y1="292.09" x2="867.53" y2="292.09"/>
  <line class="cls-1" x1="873.2" y1="286.42" x2="873.2" y2="292.09"/>
  <line class="cls-1" x1="878.87" y1="286.42" x2="873.2" y2="286.42"/>
  <rect class="cls-1" x="850.52" y="28.47" width="28.35" height="28.35"/>
  <line class="cls-1" x1="850.52" y1="53.98" x2="856.19" y2="53.98"/>
  <line class="cls-1" x1="856.19" y1="48.31" x2="856.19" y2="53.98"/>
  <line class="cls-1" x1="861.86" y1="48.31" x2="856.19" y2="48.31"/>
  <line class="cls-1" x1="861.86" y1="42.64" x2="861.86" y2="48.31"/>
  <line class="cls-1" x1="867.53" y1="42.64" x2="861.86" y2="42.64"/>
  <line class="cls-1" x1="867.53" y1="36.98" x2="867.53" y2="42.64"/>
  <line class="cls-1" x1="873.2" y1="36.98" x2="867.53" y2="36.98"/>
  <line class="cls-1" x1="873.2" y1="31.31" x2="873.2" y2="36.98"/>
  <line class="cls-1" x1="878.87" y1="31.31" x2="873.2" y2="31.31"/>
  <rect class="cls-1" x="963.9" y="283.59" width="28.35" height="28.35"/>
  <line class="cls-1" x1="963.9" y1="309.1" x2="969.57" y2="309.1"/>
  <line class="cls-1" x1="969.57" y1="303.43" x2="969.57" y2="309.1"/>
  <line class="cls-1" x1="975.24" y1="303.43" x2="969.57" y2="303.43"/>
  <line class="cls-1" x1="975.24" y1="297.76" x2="975.24" y2="303.43"/>
  <line class="cls-1" x1="980.91" y1="297.76" x2="975.24" y2="297.76"/>
  <line class="cls-1" x1="980.91" y1="292.09" x2="980.91" y2="297.76"/>
  <line class="cls-1" x1="986.58" y1="292.09" x2="980.91" y2="292.09"/>
  <line class="cls-1" x1="986.58" y1="286.42" x2="986.58" y2="292.09"/>
  <line class="cls-1" x1="992.25" y1="286.42" x2="986.58" y2="286.42"/>
  <rect class="cls-1" x="963.9" y="28.47" width="28.35" height="28.35"/>
  <line class="cls-1" x1="963.9" y1="53.98" x2="969.57" y2="53.98"/>
  <line class="cls-1" x1="969.57" y1="48.31" x2="969.57" y2="53.98"/>
  <line class="cls-1" x1="975.24" y1="48.31" x2="969.57" y2="48.31"/>
  <line class="cls-1" x1="975.24" y1="42.64" x2="975.24" y2="48.31"/>
  <line class="cls-1" x1="980.91" y1="42.64" x2="975.24" y2="42.64"/>
  <line class="cls-1" x1="980.91" y1="36.98" x2="980.91" y2="42.64"/>
  <line class="cls-1" x1="986.58" y1="36.98" x2="980.91" y2="36.98"/>
  <line class="cls-1" x1="986.58" y1="31.31" x2="986.58" y2="36.98"/>
  <line class="cls-1" x1="992.25" y1="31.31" x2="986.58" y2="31.31"/>
  <line class="cls-1" x1="110.68" y1="269.42" x2="110.68" y2="255.24"/>
  <line class="cls-1" x1="96.5" y1="255.24" x2="110.68" y2="255.24"/>
  <path class="cls-1" d="m110.68,269.42c-7.83,0-14.17-6.35-14.17-14.17"/>
  <line class="cls-1" x1="130.52" y1="255.24" x2="116.35" y2="255.24"/>
  <line class="cls-1" x1="116.35" y1="269.42" x2="116.35" y2="255.24"/>
  <path class="cls-1" d="m130.52,255.24c0,7.83-6.35,14.17-14.17,14.17"/>
  <line class="cls-1" x1="85.16" y1="190.05" x2="85.16" y2="175.87"/>
  <line class="cls-1" x1="70.99" y1="175.87" x2="85.16" y2="175.87"/>
  <path class="cls-1" d="m85.16,190.05c-7.83,0-14.17-6.35-14.17-14.17"/>
  <g>
    <line class="cls-1" x1="70.99" y1="164.53" x2="85.16" y2="164.53"/>
    <line class="cls-1" x1="85.16" y1="150.36" x2="85.16" y2="164.53"/>
    <path class="cls-1" d="m70.99,164.53c0-7.83,6.35-14.17,14.17-14.17"/>
  </g>
  <g>
    <line class="cls-1" x1="93.67" y1="85.16" x2="107.84" y2="85.16"/>
    <line class="cls-1" x1="107.84" y1="70.99" x2="107.84" y2="85.16"/>
    <path class="cls-1" d="m93.67,85.16c0-7.83,6.35-14.17,14.17-14.17"/>
  </g>
  <g>
    <line class="cls-1" x1="178.71" y1="85.16" x2="192.88" y2="85.16"/>
    <line class="cls-1" x1="192.88" y1="70.99" x2="192.88" y2="85.16"/>
    <path class="cls-1" d="m178.71,85.16c0-7.83,6.35-14.17,14.17-14.17"/>
  </g>
  <g>
    <line class="cls-1" x1="235.4" y1="85.16" x2="249.57" y2="85.16"/>
    <line class="cls-1" x1="249.57" y1="70.99" x2="249.57" y2="85.16"/>
    <path class="cls-1" d="m235.4,85.16c0-7.83,6.35-14.17,14.17-14.17"/>
  </g>
  <g>
    <line class="cls-1" x1="207.05" y1="113.51" x2="221.23" y2="113.51"/>
    <line class="cls-1" x1="221.23" y1="99.34" x2="221.23" y2="113.51"/>
    <path class="cls-1" d="m207.05,113.51c0-7.83,6.35-14.17,14.17-14.17"/>
  </g>
  <line class="cls-1" x1="249.57" y1="269.42" x2="249.57" y2="255.24"/>
  <line class="cls-1" x1="235.4" y1="255.24" x2="249.57" y2="255.24"/>
  <path class="cls-1" d="m249.57,269.42c-7.83,0-14.17-6.35-14.17-14.17"/>
  <line class="cls-1" x1="221.23" y1="241.07" x2="221.23" y2="226.9"/>
  <line class="cls-1" x1="207.05" y1="226.9" x2="221.23" y2="226.9"/>
  <path class="cls-1" d="m221.23,241.07c-7.83,0-14.17-6.35-14.17-14.17"/>
  <line class="cls-1" x1="261.37" y1="99.11" x2="261.13" y2="113.28"/>
  <line class="cls-1" x1="275.3" y1="113.51" x2="261.13" y2="113.28"/>
  <path class="cls-1" d="m261.37,99.11c7.83.13,14.07,6.58,13.94,14.41"/>
  <line class="cls-1" x1="275.09" y1="226.9" x2="260.91" y2="226.9"/>
  <line class="cls-1" x1="260.91" y1="241.07" x2="260.91" y2="226.9"/>
  <path class="cls-1" d="m275.09,226.9c0,7.83-6.35,14.17-14.17,14.17"/>
  <g>
    <line class="cls-1" x1="433.83" y1="85.16" x2="448" y2="85.16"/>
    <line class="cls-1" x1="448" y1="70.99" x2="448" y2="85.16"/>
    <path class="cls-1" d="m433.83,85.16c0-7.83,6.35-14.17,14.17-14.17"/>
  </g>
  <line class="cls-1" x1="453.9" y1="122.01" x2="453.67" y2="136.19"/>
  <line class="cls-1" x1="467.84" y1="136.42" x2="453.67" y2="136.19"/>
  <path class="cls-1" d="m453.9,122.01c7.83.13,14.07,6.58,13.94,14.41"/>
  <line class="cls-1" x1="467.84" y1="204.22" x2="453.67" y2="204.22"/>
  <line class="cls-1" x1="453.67" y1="218.39" x2="453.67" y2="204.22"/>
  <path class="cls-1" d="m467.84,204.22c0,7.83-6.35,14.17-14.17,14.17"/>
  <line class="cls-1" x1="448" y1="269.42" x2="448" y2="255.24"/>
  <line class="cls-1" x1="433.83" y1="255.24" x2="448" y2="255.24"/>
  <path class="cls-1" d="m448,269.42c-7.83,0-14.17-6.35-14.17-14.17"/>
  <g>
    <line class="cls-1" x1="547.21" y1="85.16" x2="561.38" y2="85.16"/>
    <line class="cls-1" x1="561.38" y1="70.99" x2="561.38" y2="85.16"/>
    <path class="cls-1" d="m547.21,85.16c0-7.83,6.35-14.17,14.17-14.17"/>
  </g>
  <g>
    <line class="cls-7" x1="603.9" y1="85.16" x2="618.08" y2="85.16"/>
    <line class="cls-7" x1="618.08" y1="70.99" x2="618.08" y2="85.16"/>
    <path class="cls-7" d="m603.9,85.16c0-7.83,6.35-14.17,14.17-14.17"/>
  </g>
  <g>
    <line class="cls-7" x1="660.6" y1="85.16" x2="674.77" y2="85.16"/>
    <line class="cls-7" x1="674.77" y1="70.99" x2="674.77" y2="85.16"/>
    <path class="cls-7" d="m660.6,85.16c0-7.83,6.35-14.17,14.17-14.17"/>
  </g>
  <g>
    <line class="cls-7" x1="717.29" y1="85.16" x2="731.46" y2="85.16"/>
    <line class="cls-7" x1="731.46" y1="70.99" x2="731.46" y2="85.16"/>
    <path class="cls-7" d="m717.29,85.16c0-7.83,6.35-14.17,14.17-14.17"/>
  </g>
  <g>
    <line class="cls-1" x1="773.98" y1="85.16" x2="788.16" y2="85.16"/>
    <line class="cls-1" x1="788.16" y1="70.99" x2="788.16" y2="85.16"/>
    <path class="cls-1" d="m773.98,85.16c0-7.83,6.35-14.17,14.17-14.17"/>
  </g>
  <g>
    <line class="cls-1" x1="802.33" y1="85.16" x2="816.5" y2="85.16"/>
    <line class="cls-1" x1="816.5" y1="70.99" x2="816.5" y2="85.16"/>
    <path class="cls-1" d="m802.33,85.16c0-7.83,6.35-14.17,14.17-14.17"/>
  </g>
  <line class="cls-1" x1="884.77" y1="70.99" x2="884.53" y2="85.16"/>
  <line class="cls-1" x1="898.71" y1="85.4" x2="884.53" y2="85.16"/>
  <path class="cls-1" d="m884.77,70.99c7.83.13,14.07,6.58,13.94,14.41"/>
  <line class="cls-1" x1="567.05" y1="218.39" x2="567.05" y2="204.22"/>
  <line class="cls-1" x1="552.88" y1="204.22" x2="567.05" y2="204.22"/>
  <path class="cls-1" d="m567.05,218.39c-7.83,0-14.17-6.35-14.17-14.17"/>
  <line class="cls-1" x1="552.88" y1="136.19" x2="567.05" y2="136.19"/>
  <line class="cls-1" x1="567.05" y1="122.01" x2="567.05" y2="136.19"/>
  <path class="cls-1" d="m552.88,136.19c0-7.83,6.35-14.17,14.17-14.17"/>
  <line class="cls-7" x1="618.08" y1="269.42" x2="618.08" y2="255.24"/>
  <line class="cls-7" x1="603.9" y1="255.24" x2="618.08" y2="255.24"/>
  <path class="cls-7" d="m618.08,269.42c-7.83,0-14.17-6.35-14.17-14.17"/>
  <line class="cls-7" x1="731.46" y1="269.42" x2="731.46" y2="255.24"/>
  <line class="cls-7" x1="717.29" y1="255.24" x2="731.46" y2="255.24"/>
  <path class="cls-7" d="m731.46,269.42c-7.83,0-14.17-6.35-14.17-14.17"/>
  <line class="cls-1" x1="958.24" y1="269.42" x2="958.24" y2="255.24"/>
  <line class="cls-1" x1="944.06" y1="255.24" x2="958.24" y2="255.24"/>
  <path class="cls-1" d="m958.24,269.42c-7.83,0-14.17-6.35-14.17-14.17"/>
  <line class="cls-1" x1="808" y1="204.22" x2="793.83" y2="204.22"/>
  <line class="cls-1" x1="793.83" y1="218.39" x2="793.83" y2="204.22"/>
  <path class="cls-1" d="m808,204.22c0,7.83-6.35,14.17-14.17,14.17"/>
  <line class="cls-1" x1="794.06" y1="119.18" x2="793.83" y2="133.35"/>
  <line class="cls-1" x1="808" y1="133.59" x2="793.83" y2="133.35"/>
  <path class="cls-1" d="m794.06,119.18c7.83.13,14.07,6.58,13.94,14.41"/>
  <g>
    <line class="cls-1" x1="864.69" y1="136.19" x2="878.87" y2="136.19"/>
    <line class="cls-1" x1="878.87" y1="122.01" x2="878.87" y2="136.19"/>
    <path class="cls-1" d="m864.69,136.19c0-7.83,6.35-14.17,14.17-14.17"/>
  </g>
  <line class="cls-1" x1="878.87" y1="218.39" x2="878.87" y2="204.22"/>
  <line class="cls-1" x1="864.69" y1="204.22" x2="878.87" y2="204.22"/>
  <path class="cls-1" d="m878.87,218.39c-7.83,0-14.17-6.35-14.17-14.17"/>
  <line class="cls-1" x1="1020.6" y1="218.39" x2="1020.6" y2="204.22"/>
  <line class="cls-1" x1="1006.42" y1="204.22" x2="1020.6" y2="204.22"/>
  <path class="cls-1" d="m1020.6,218.39c-7.83,0-14.17-6.35-14.17-14.17"/>
  <line class="cls-1" x1="788.16" y1="269.42" x2="788.16" y2="255.24"/>
  <line class="cls-1" x1="773.98" y1="255.24" x2="788.16" y2="255.24"/>
  <path class="cls-1" d="m788.16,269.42c-7.83,0-14.17-6.35-14.17-14.17"/>
  <rect class="cls-6" x="226.9" y="113.51" width="28.35" height="28.35"/>
  <g>
    <line class="cls-1" x1="1006.42" y1="105.01" x2="1020.6" y2="105.01"/>
    <line class="cls-1" x1="1020.6" y1="90.83" x2="1020.6" y2="105.01"/>
    <path class="cls-1" d="m1006.42,105.01c0-7.83,6.35-14.17,14.17-14.17"/>
  </g>
  <text class="cls-8" transform="translate(41.83 300.6)"><tspan x="0" y="0">279F</tspan></text>
  <text class="cls-8" transform="translate(27.65 215.56)"><tspan x="0" y="0">280F</tspan></text>
  <text class="cls-8" transform="translate(141.04 300.6)"><tspan x="0" y="0">277F</tspan></text>
  <text class="cls-8" transform="translate(27.65 130.52)"><tspan x="0" y="0">281F</tspan></text>
  <text class="cls-8" transform="translate(41.83 48.31)"><tspan x="0" y="0">278F</tspan></text>
  <text class="cls-8" transform="translate(141.04 48.31)"><tspan x="0" y="0">274F</tspan></text>
  <text class="cls-8" transform="translate(172.22 173.08)"><tspan x="0" y="0">275F</tspan></text>
  <text class="cls-8" transform="translate(282.77 173.08)"><tspan x="0" y="0">270F</tspan></text>
  <text class="cls-8" transform="translate(381.96 48.31)"><tspan x="0" y="0">264E</tspan></text>
  <text class="cls-8" transform="translate(385.03 173.04)"><tspan x="0" y="0">12E</tspan></text>
  <text class="cls-8" transform="translate(381.96 300.6)"><tspan x="0" y="0">265E</tspan></text>
  <text class="cls-8" transform="translate(600.47 173.08)"><tspan x="0" y="0">11E</tspan></text>
  <text class="cls-8" transform="translate(583.21 300.6)"><tspan x="0" y="0">253E</tspan></text>
  <text class="cls-8" transform="translate(583.22 48.31)"><tspan x="0" y="0">248E</tspan></text>
  <text class="cls-8" transform="translate(639.91 48.31)"><tspan x="0" y="0">244E</tspan></text>
  <text class="cls-8" transform="translate(668.25 300.6)"><tspan x="0" y="0">247E</tspan></text>
  <text class="cls-8" transform="translate(744.75 173.08)"><tspan x="0" y="0">7C</tspan></text>
  <text class="cls-8" transform="translate(696.07 48.31)"><tspan x="0" y="0">238C</tspan></text>
  <text class="cls-8" transform="translate(752.77 300.6)"><tspan x="0" y="0">237C</tspan></text>
  <text class="cls-8" transform="translate(752.77 48.31)"><tspan x="0" y="0">234C</tspan></text>
  <text class="cls-8" transform="translate(914.83 173.08)"><tspan x="0" y="0">6C</tspan></text>
  <text class="cls-8" transform="translate(908.67 48.31)"><tspan x="0" y="0">226C</tspan></text>
  <text class="cls-8" transform="translate(908.67 300.6)"><tspan x="0" y="0">227C</tspan></text>
  <text class="cls-8" transform="translate(1070.54 158.87)"><tspan x="0" y="0">2A</tspan></text>
</svg>