<?xml version="1.0" encoding="UTF-8"?>
<svg id="Calque_1" data-name="Calque 1" xmlns="http://www.w3.org/2000/svg" viewBox="0 0 1162.19 397.39">
  <defs>
    <style>
      .cls-1 {
        fill: none;
      }

      .cls-1, .cls-2, .cls-3, .cls-4, .cls-5, .cls-6 {
        stroke: #1d1d1b;
        stroke-miterlimit: 10;
        stroke-width: .25px;
      }

      .cls-7 {
        letter-spacing: -.07em;
      }

      .cls-8, .cls-9 {
        isolation: isolate;
      }

      .cls-2 {
        fill: #fff;
      }

      .cls-3 {
        fill: #e94e1b;
      }

      .cls-9 {
        fill: #1d1d1b;
        font-family: ArialMT, Arial;
        font-size: 12px;
      }

      .cls-4 {
        fill: #8ecbb5;
      }

      .cls-5 {
        fill: #e6332a;
      }

      .cls-6 {
        fill: #c8d972;
      }
    </style>
  </defs>
  <line class="cls-1" x1="256.08" y1="170.34" x2="255.25" y2="255.25"/>
  <rect class="cls-6" x="255.25" y="141.87" width="85.04" height="113.39"/>
  <rect class="cls-4" x="340.28" y="142.14" width="82.98" height="113.39"/>
  <rect class="cls-3" x="423.68" y="170.2" width="28.35" height="56.69"/>
  <rect class="cls-1" x="283.59" y="340.28" width="28.35" height="28.35"/>
  <rect class="cls-4" x="537.05" y="142.14" width="85.04" height="113.39"/>
  <rect class="cls-4" x="678.79" y="141.87" width="85.04" height="113.39"/>
  <line class="cls-1" x1="255.25" y1=".12" x2="340.28" y2=".12"/>
  <line class="cls-1" x1="423.68" y1=".12" x2="537.05" y2=".13"/>
  <line class="cls-1" x1="763.84" y1=".13" x2="877.22" y2=".41"/>
  <line class="cls-1" x1="905.26" y1=".13" x2="990.3" y2=".41"/>
  <line class="cls-1" x1="906.26" y1="395.85" x2="991.3" y2="396.27"/>
  <line class="cls-1" x1="935.26" y1="255.25" x2="935.26" y2="312.23"/>
  <line class="cls-1" x1="877.22" y1="396.99" x2="763.84" y2="396.99"/>
  <line class="cls-1" x1="537.05" y1="396.99" x2="423.68" y2="396.99"/>
  <line class="cls-1" x1="283.59" y1="365.8" x2="289.27" y2="365.8"/>
  <line class="cls-1" x1="289.27" y1="360.12" x2="289.27" y2="365.8"/>
  <line class="cls-1" x1="294.93" y1="360.12" x2="289.27" y2="360.12"/>
  <line class="cls-1" x1="294.93" y1="354.46" x2="294.93" y2="360.12"/>
  <line class="cls-1" x1="300.61" y1="354.46" x2="294.93" y2="354.46"/>
  <line class="cls-1" x1="300.61" y1="348.8" x2="300.61" y2="354.46"/>
  <line class="cls-1" x1="306.27" y1="348.8" x2="300.61" y2="348.8"/>
  <line class="cls-1" x1="306.27" y1="343.12" x2="306.27" y2="348.8"/>
  <line class="cls-1" x1="311.95" y1="343.12" x2="306.27" y2="343.12"/>
  <rect class="cls-4" x="877.22" y="141.87" width="58.04" height="113.39"/>
  <rect class="cls-3" x="848.87" y="170.2" width="28.35" height="56.69"/>
  <rect class="cls-3" x="1076.69" y="28.47" width="28.35" height="28.35"/>
  <rect class="cls-1" x="283.59" y="28.47" width="28.35" height="28.35"/>
  <line class="cls-1" x1="283.59" y1="53.98" x2="289.27" y2="53.98"/>
  <line class="cls-1" x1="289.27" y1="48.32" x2="289.27" y2="53.98"/>
  <line class="cls-1" x1="294.93" y1="48.32" x2="289.27" y2="48.32"/>
  <line class="cls-1" x1="294.93" y1="42.64" x2="294.93" y2="48.32"/>
  <line class="cls-1" x1="300.61" y1="42.64" x2="294.93" y2="42.64"/>
  <line class="cls-1" x1="300.61" y1="36.98" x2="300.61" y2="42.64"/>
  <line class="cls-1" x1="306.27" y1="36.98" x2="300.61" y2="36.98"/>
  <line class="cls-1" x1="306.27" y1="31.31" x2="306.27" y2="36.98"/>
  <line class="cls-1" x1="311.95" y1="31.31" x2="306.27" y2="31.31"/>
  <rect class="cls-1" x="452.02" y="28.47" width="28.35" height="28.35"/>
  <line class="cls-1" x1="452.02" y1="53.98" x2="457.68" y2="53.98"/>
  <line class="cls-1" x1="457.68" y1="48.32" x2="457.68" y2="53.98"/>
  <line class="cls-1" x1="463.36" y1="48.32" x2="457.68" y2="48.32"/>
  <line class="cls-1" x1="463.36" y1="42.64" x2="463.36" y2="48.32"/>
  <line class="cls-1" x1="469.02" y1="42.64" x2="463.36" y2="42.64"/>
  <line class="cls-1" x1="469.02" y1="36.98" x2="469.02" y2="42.64"/>
  <line class="cls-1" x1="474.7" y1="36.98" x2="469.02" y2="36.98"/>
  <line class="cls-1" x1="474.7" y1="31.31" x2="474.7" y2="36.98"/>
  <line class="cls-1" x1="480.36" y1="31.31" x2="474.7" y2="31.31"/>
  <rect class="cls-1" x="452.02" y="340.28" width="28.35" height="28.35"/>
  <line class="cls-1" x1="452.02" y1="365.8" x2="457.68" y2="365.8"/>
  <line class="cls-1" x1="457.68" y1="360.12" x2="457.68" y2="365.8"/>
  <line class="cls-1" x1="463.36" y1="360.12" x2="457.68" y2="360.12"/>
  <line class="cls-1" x1="463.36" y1="354.46" x2="463.36" y2="360.12"/>
  <line class="cls-1" x1="469.02" y1="354.46" x2="463.36" y2="354.46"/>
  <line class="cls-1" x1="469.02" y1="348.8" x2="469.02" y2="354.46"/>
  <line class="cls-1" x1="474.7" y1="348.8" x2="469.02" y2="348.8"/>
  <line class="cls-1" x1="474.7" y1="343.12" x2="474.7" y2="348.8"/>
  <line class="cls-1" x1="480.36" y1="343.12" x2="474.7" y2="343.12"/>
  <rect class="cls-1" x="622.1" y="198.56" width="28.35" height="28.35"/>
  <line class="cls-1" x1="622.1" y1="224.06" x2="627.77" y2="224.06"/>
  <line class="cls-1" x1="627.77" y1="218.39" x2="627.77" y2="224.06"/>
  <line class="cls-1" x1="633.43" y1="218.39" x2="627.77" y2="218.39"/>
  <line class="cls-1" x1="633.43" y1="212.73" x2="633.43" y2="218.39"/>
  <line class="cls-1" x1="639.1" y1="212.73" x2="633.43" y2="212.73"/>
  <line class="cls-1" x1="639.1" y1="207.06" x2="639.1" y2="212.73"/>
  <line class="cls-1" x1="644.78" y1="207.06" x2="639.1" y2="207.06"/>
  <line class="cls-1" x1="644.78" y1="201.39" x2="644.78" y2="207.06"/>
  <line class="cls-1" x1="650.45" y1="201.39" x2="644.78" y2="201.39"/>
  <rect class="cls-1" x="650.45" y="170.2" width="28.35" height="28.35"/>
  <line class="cls-1" x1="650.45" y1="195.73" x2="656.11" y2="195.73"/>
  <line class="cls-1" x1="656.11" y1="190.06" x2="656.11" y2="195.73"/>
  <line class="cls-1" x1="661.79" y1="190.06" x2="656.11" y2="190.06"/>
  <line class="cls-1" x1="661.79" y1="184.39" x2="661.79" y2="190.06"/>
  <line class="cls-1" x1="667.46" y1="184.39" x2="661.79" y2="184.39"/>
  <line class="cls-1" x1="667.46" y1="178.72" x2="667.46" y2="184.39"/>
  <line class="cls-1" x1="673.12" y1="178.72" x2="667.46" y2="178.72"/>
  <line class="cls-1" x1="673.12" y1="173.04" x2="673.12" y2="178.72"/>
  <line class="cls-1" x1="678.79" y1="173.04" x2="673.12" y2="173.04"/>
  <rect class="cls-1" x="820.53" y="340.28" width="28.35" height="28.35"/>
  <line class="cls-1" x1="820.53" y1="365.8" x2="826.2" y2="365.8"/>
  <line class="cls-1" x1="826.2" y1="360.12" x2="826.2" y2="365.8"/>
  <line class="cls-1" x1="831.86" y1="360.12" x2="826.2" y2="360.12"/>
  <line class="cls-1" x1="831.86" y1="354.46" x2="831.86" y2="360.12"/>
  <line class="cls-1" x1="837.54" y1="354.46" x2="831.86" y2="354.46"/>
  <line class="cls-1" x1="837.54" y1="348.8" x2="837.54" y2="354.46"/>
  <line class="cls-1" x1="843.21" y1="348.8" x2="837.54" y2="348.8"/>
  <line class="cls-1" x1="843.21" y1="343.12" x2="843.21" y2="348.8"/>
  <line class="cls-1" x1="848.87" y1="343.12" x2="843.21" y2="343.12"/>
  <rect class="cls-1" x="820.53" y="28.47" width="28.35" height="28.35"/>
  <line class="cls-1" x1="820.53" y1="53.98" x2="826.2" y2="53.98"/>
  <line class="cls-1" x1="826.2" y1="48.32" x2="826.2" y2="53.98"/>
  <line class="cls-1" x1="831.86" y1="48.32" x2="826.2" y2="48.32"/>
  <line class="cls-1" x1="831.86" y1="42.64" x2="831.86" y2="48.32"/>
  <line class="cls-1" x1="837.54" y1="42.64" x2="831.86" y2="42.64"/>
  <line class="cls-1" x1="837.54" y1="36.98" x2="837.54" y2="42.64"/>
  <line class="cls-1" x1="843.21" y1="36.98" x2="837.54" y2="36.98"/>
  <line class="cls-1" x1="843.21" y1="31.31" x2="843.21" y2="36.98"/>
  <line class="cls-1" x1="848.87" y1="31.31" x2="843.21" y2="31.31"/>
  <rect class="cls-1" x="907.26" y="340.28" width="28.35" height="28.35"/>
  <line class="cls-1" x1="907.26" y1="365.8" x2="912.92" y2="365.8"/>
  <line class="cls-1" x1="912.92" y1="360.12" x2="912.92" y2="365.8"/>
  <line class="cls-1" x1="918.6" y1="360.12" x2="912.92" y2="360.12"/>
  <line class="cls-1" x1="918.6" y1="354.46" x2="918.6" y2="360.12"/>
  <line class="cls-1" x1="924.27" y1="354.46" x2="918.6" y2="354.46"/>
  <line class="cls-1" x1="924.27" y1="348.8" x2="924.27" y2="354.46"/>
  <line class="cls-1" x1="929.93" y1="348.8" x2="924.27" y2="348.8"/>
  <line class="cls-1" x1="929.93" y1="343.12" x2="929.93" y2="348.8"/>
  <line class="cls-1" x1="935.6" y1="343.12" x2="929.93" y2="343.12"/>
  <rect class="cls-1" x="907.26" y="28.47" width="28.35" height="28.35"/>
  <line class="cls-1" x1="907.26" y1="53.98" x2="912.92" y2="53.98"/>
  <line class="cls-1" x1="912.92" y1="48.32" x2="912.92" y2="53.98"/>
  <line class="cls-1" x1="918.6" y1="48.32" x2="912.92" y2="48.32"/>
  <line class="cls-1" x1="918.6" y1="42.64" x2="918.6" y2="48.32"/>
  <line class="cls-1" x1="924.27" y1="42.64" x2="918.6" y2="42.64"/>
  <line class="cls-1" x1="924.27" y1="36.98" x2="924.27" y2="42.64"/>
  <line class="cls-1" x1="929.93" y1="36.98" x2="924.27" y2="36.98"/>
  <line class="cls-1" x1="929.93" y1="31.31" x2="929.93" y2="36.98"/>
  <line class="cls-1" x1="935.6" y1="31.31" x2="929.93" y2="31.31"/>
  <line class="cls-1" x1="261.37" y1="240.84" x2="261.14" y2="255.01"/>
  <line class="cls-1" x1="275.3" y1="255.48" x2="261.14" y2="255.25"/>
  <path class="cls-1" d="m261.37,240.84c7.83.13,14.07,6.58,13.94,14.41"/>
  <line class="cls-1" x1="537.05" y1="150.37" x2="536.83" y2="164.53"/>
  <line class="cls-1" x1="551.23" y1="164.78" x2="537.05" y2="164.53"/>
  <path class="cls-1" d="m537.29,150.37c7.83.13,14.07,6.58,13.94,14.41"/>
  <line class="cls-1" x1="551.23" y1="232.58" x2="537.05" y2="232.58"/>
  <line class="cls-1" x1="537.05" y1="246.75" x2="537.05" y2="232.58"/>
  <path class="cls-1" d="m551.23,232.58c0,7.83-6.35,14.17-14.17,14.17"/>
  <line class="cls-1" x1="423.68" y1="246.75" x2="423.68" y2="232.58"/>
  <line class="cls-1" x1="409.51" y1="232.58" x2="423.68" y2="232.58"/>
  <path class="cls-1" d="m423.68,246.75c-7.83,0-14.17-6.35-14.17-14.17"/>
  <line class="cls-1" x1="409.51" y1="164.53" x2="423.68" y2="164.53"/>
  <line class="cls-1" x1="423.68" y1="150.37" x2="423.68" y2="164.53"/>
  <path class="cls-1" d="m409.51,164.53c0-7.83,6.35-14.17,14.17-14.17"/>
  <line class="cls-1" x1="891.39" y1="232.58" x2="877.22" y2="232.58"/>
  <line class="cls-1" x1="877.22" y1="246.75" x2="877.22" y2="232.58"/>
  <path class="cls-1" d="m891.39,232.58c0,7.83-6.35,14.17-14.17,14.17"/>
  <line class="cls-1" x1="877.22" y1="147.53" x2="876.98" y2="161.7"/>
  <line class="cls-1" x1="891.39" y1="161.93" x2="877.22" y2="161.7"/>
  <path class="cls-1" d="m877.46,147.53c7.83.13,14.07,6.58,13.94,14.41"/>
  <g>
    <line class="cls-1" x1="749.66" y1="164.53" x2="763.84" y2="164.53"/>
    <line class="cls-1" x1="763.84" y1="150.37" x2="763.84" y2="164.53"/>
    <path class="cls-1" d="m749.66,164.53c0-7.83,6.35-14.17,14.17-14.17"/>
  </g>
  <line class="cls-1" x1="763.84" y1="246.75" x2="763.84" y2="232.58"/>
  <line class="cls-1" x1="749.66" y1="232.58" x2="763.84" y2="232.58"/>
  <path class="cls-1" d="m763.84,246.75c-7.83,0-14.17-6.35-14.17-14.17"/>
  <g class="cls-8">
    <text class="cls-9" transform="translate(282.77 201.43)"><tspan x="0" y="0">370F</tspan></text>
  </g>
  <g class="cls-8">
    <text class="cls-9" transform="translate(369.03 201.39)"><tspan x="0" y="0">12E</tspan></text>
  </g>
  <g class="cls-8">
    <text class="cls-9" transform="translate(570.47 201.43)"><tspan class="cls-7" x="0" y="0">1</tspan><tspan x="5.78" y="0">1E</tspan></text>
  </g>
  <g class="cls-8">
    <text class="cls-9" transform="translate(714.76 201.43)"><tspan x="0" y="0">7C</tspan></text>
  </g>
  <g class="cls-8">
    <text class="cls-9" transform="translate(901.17 201.43)"><tspan x="0" y="0">6C</tspan></text>
  </g>
  <circle class="cls-1" cx="236.04" cy="186.01" r="7.09"/>
  <polygon class="cls-2" points="255.25 255.25 226.9 255.25 227.73 170.34 256.08 170.34 255.25 255.25"/>
  <rect class="cls-5" x="226.9" y="141.87" width="28.35" height="28.35"/>
  <line class="cls-1" x1="537.05" y1=".13" x2="537.05" y2="141.87"/>
  <line class="cls-1" x1="622.1" y1="141.87" x2="678.79" y2="141.87"/>
  <line class="cls-1" x1="763.84" y1=".13" x2="763.84" y2="141.87"/>
  <line class="cls-1" x1="537.05" y1="396.99" x2="537.05" y2="255.53"/>
  <line class="cls-1" x1="622.1" y1="255.25" x2="678.79" y2="255.25"/>
  <line class="cls-1" x1="763.84" y1="255.25" x2="763.84" y2="396.99"/>
  <line class="cls-1" x1="255.25" y1="396.99" x2="340.28" y2="396.99"/>
  <line class="cls-1" x1="340.28" y1=".41" x2="340.28" y2="142.14"/>
  <line class="cls-1" x1="423.68" y1=".41" x2="423.68" y2="142.14"/>
  <line class="cls-1" x1="340.28" y1="255.53" x2="340.28" y2="397.27"/>
  <line class="cls-1" x1="423.68" y1="255.53" x2="423.68" y2="397.27"/>
  <rect class="cls-6" x="141.87" y="142.14" width="85.04" height="113.39"/>
  <rect class="cls-2" x="198.56" y=".41" width="56.69" height="85.04"/>
  <rect class="cls-2" x="198.56" y="312.23" width="56.69" height="85.04"/>
  <rect class="cls-6" x="113.52" y="312.23" width="85.04" height="85.04"/>
  <rect class="cls-6" x="113.52" y=".41" width="85.04" height="85.04"/>
  <rect class="cls-6" x=".12" y="312.23" width="113.39" height="85.04"/>
  <rect class="cls-6" x=".12" y=".41" width="113.39" height="85.04"/>
  <rect class="cls-6" x=".13" y="198.84" width="85.04" height="113.39"/>
  <rect class="cls-6" x=".13" y="85.45" width="85.04" height="113.39"/>
  <line class="cls-1" x1="877.22" y1="255.53" x2="877.22" y2="397.27"/>
  <line class="cls-1" x1="877.22" y1=".41" x2="877.22" y2="142.14"/>
  <line class="cls-1" x1="935.26" y1="85.46" x2="935.26" y2="142.14"/>
  <rect class="cls-6" x="934.26" y="142.14" width="58.04" height="113.39"/>
  <polygon class="cls-2" points="1020.82 255.4 992.47 255.4 993.3 142.14 1021.65 142.14 1020.82 255.4"/>
  <rect class="cls-6" x="1020.65" y="142.14" width="56.68" height="113.39"/>
  <line class="cls-1" x1="992.3" y1="312.23" x2="992.3" y2="397.27"/>
  <rect class="cls-2" x="480.36" y=".41" width="56.69" height="85.04"/>
  <rect class="cls-2" x="763.84" y=".41" width="56.69" height="85.04"/>
  <rect class="cls-6" x="480.36" y="312.23" width="56.69" height="85.04"/>
  <rect class="cls-6" x="763.84" y="312.23" width="56.69" height="85.04"/>
  <rect class="cls-6" x="1019.98" y=".41" width="56.69" height="85.04"/>
  <rect class="cls-6" x="963.3" y=".41" width="56.69" height="85.04"/>
  <rect class="cls-6" x="1076.69" y=".41" width="28.35" height="28.35"/>
  <rect class="cls-6" x="1105.37" y=".41" width="56.69" height="85.04"/>
  <rect class="cls-6" x="1105.37" y="85.45" width="56.69" height="113.39"/>
  <rect class="cls-6" x="1105.37" y="198.84" width="56.69" height="113.39"/>
  <line class="cls-1" x1="992.3" y1="312.23" x2="1105.04" y2="312.23"/>
  <g class="cls-8">
    <text class="cls-9" transform="translate(946.6 201.67)"><tspan x="0" y="0">315B</tspan></text>
  </g>
  <g class="cls-8">
    <text class="cls-9" transform="translate(1035.82 201.67)"><tspan x="0" y="0">3</tspan><tspan class="cls-7" x="6.67" y="0">1</tspan><tspan x="12.46" y="0">1B</tspan></text>
  </g>
  <g class="cls-8">
    <text class="cls-9" transform="translate(977.46 45.77)"><tspan x="0" y="0">314B</tspan></text>
  </g>
  <g class="cls-8">
    <text class="cls-9" transform="translate(1034.17 45.77)"><tspan x="0" y="0">310B</tspan></text>
  </g>
  <g class="cls-8">
    <text class="cls-9" transform="translate(1122.39 48.6)"><tspan x="0" y="0">306B</tspan></text>
  </g>
  <g class="cls-8">
    <text class="cls-9" transform="translate(1122.39 144.98)"><tspan x="0" y="0">304B</tspan></text>
  </g>
  <g class="cls-8">
    <text class="cls-9" transform="translate(1119.55 255.53)"><tspan x="0" y="0">305B</tspan></text>
  </g>
  <g class="cls-8">
    <text class="cls-9" transform="translate(780.84 357.58)"><tspan x="0" y="0">331C</tspan></text>
  </g>
  <g class="cls-8">
    <text class="cls-9" transform="translate(497.37 357.58)"><tspan x="0" y="0">357E</tspan></text>
  </g>
  <g class="cls-8">
    <text class="cls-9" transform="translate(170.2 201.67)"><tspan x="0" y="0">375F</tspan></text>
  </g>
  <g class="cls-8">
    <text class="cls-9" transform="translate(144.7 357.58)"><tspan x="0" y="0">377F</tspan></text>
  </g>
  <g class="cls-8">
    <text class="cls-9" transform="translate(39.81 357.58)"><tspan x="0" y="0">379F</tspan></text>
  </g>
  <g class="cls-8">
    <text class="cls-9" transform="translate(31.31 258.36)"><tspan x="0" y="0">381F</tspan></text>
  </g>
  <g class="cls-8">
    <text class="cls-9" transform="translate(31.31 147.81)"><tspan x="0" y="0">380F</tspan></text>
  </g>
  <g class="cls-8">
    <text class="cls-9" transform="translate(39.81 45.77)"><tspan x="0" y="0">378F</tspan></text>
  </g>
  <g class="cls-8">
    <text class="cls-9" transform="translate(141.87 45.77)"><tspan x="0" y="0">376F</tspan></text>
  </g>
  <line class="cls-1" x1="249.58" y1="326.4" x2="249.58" y2="312.23"/>
  <line class="cls-1" x1="235.4" y1="312.23" x2="249.58" y2="312.23"/>
  <path class="cls-1" d="m249.58,326.4c-7.83,0-14.17-6.35-14.17-14.17"/>
  <line class="cls-1" x1="192.89" y1="326.4" x2="192.89" y2="312.23"/>
  <line class="cls-1" x1="178.72" y1="312.23" x2="192.89" y2="312.23"/>
  <path class="cls-1" d="m192.89,326.4c-7.83,0-14.17-6.35-14.17-14.17"/>
  <line class="cls-1" x1="107.84" y1="326.4" x2="107.84" y2="312.23"/>
  <line class="cls-1" x1="93.67" y1="312.23" x2="107.84" y2="312.23"/>
  <path class="cls-1" d="m107.84,326.4c-7.83,0-14.17-6.35-14.17-14.17"/>
  <line class="cls-1" x1="85.17" y1="221.51" x2="85.17" y2="207.34"/>
  <line class="cls-1" x1="70.99" y1="207.34" x2="85.17" y2="207.34"/>
  <path class="cls-1" d="m85.17,221.51c-7.83,0-14.17-6.35-14.17-14.17"/>
  <line class="cls-1" x1="70.99" y1="193.17" x2="85.17" y2="193.17"/>
  <line class="cls-1" x1="85.17" y1="179" x2="85.17" y2="193.17"/>
  <path class="cls-1" d="m70.99,193.17c0-7.83,6.35-14.17,14.17-14.17"/>
  <g>
    <line class="cls-1" x1="93.67" y1="85.45" x2="107.84" y2="85.45"/>
    <line class="cls-1" x1="107.84" y1="71.27" x2="107.84" y2="85.45"/>
    <path class="cls-1" d="m93.67,85.45c0-7.83,6.35-14.17,14.17-14.17"/>
  </g>
  <g>
    <line class="cls-1" x1="207.06" y1="255.53" x2="221.23" y2="255.53"/>
    <line class="cls-1" x1="221.23" y1="241.36" x2="221.23" y2="255.53"/>
    <path class="cls-1" d="m207.06,255.53c0-7.83,6.35-14.17,14.17-14.17"/>
  </g>
  <g>
    <line class="cls-1" x1="178.72" y1="85.45" x2="192.89" y2="85.45"/>
    <line class="cls-1" x1="192.89" y1="71.27" x2="192.89" y2="85.45"/>
    <path class="cls-1" d="m178.72,85.45c0-7.83,6.35-14.17,14.17-14.17"/>
  </g>
  <g>
    <line class="cls-1" x1="235.4" y1="85.45" x2="249.58" y2="85.45"/>
    <line class="cls-1" x1="249.58" y1="71.27" x2="249.58" y2="85.45"/>
    <path class="cls-1" d="m235.4,85.45c0-7.83,6.35-14.17,14.17-14.17"/>
  </g>
  <g>
    <line class="cls-1" x1="517.22" y1="85.45" x2="531.39" y2="85.45"/>
    <line class="cls-1" x1="531.39" y1="71.27" x2="531.39" y2="85.45"/>
    <path class="cls-1" d="m517.22,85.45c0-7.83,6.35-14.17,14.17-14.17"/>
  </g>
  <g>
    <line class="cls-1" x1="1000.15" y1="85.45" x2="1014.32" y2="85.45"/>
    <line class="cls-1" x1="1014.32" y1="71.27" x2="1014.32" y2="85.45"/>
    <path class="cls-1" d="m1000.15,85.45c0-7.83,6.35-14.17,14.17-14.17"/>
  </g>
  <g>
    <line class="cls-1" x1="975.45" y1="255.53" x2="989.62" y2="255.53"/>
    <line class="cls-1" x1="989.62" y1="241.36" x2="989.62" y2="255.53"/>
    <path class="cls-1" d="m975.45,255.53c0-7.83,6.35-14.17,14.17-14.17"/>
  </g>
  <line class="cls-1" x1="531.39" y1="326.4" x2="531.39" y2="312.23"/>
  <line class="cls-1" x1="517.22" y1="312.23" x2="531.39" y2="312.23"/>
  <path class="cls-1" d="m531.39,326.4c-7.83,0-14.17-6.35-14.17-14.17"/>
  <line class="cls-1" x1="769.73" y1="70.81" x2="769.51" y2="84.99"/>
  <line class="cls-1" x1="783.67" y1="85.45" x2="769.51" y2="85.21"/>
  <path class="cls-1" d="m769.73,70.81c7.83.13,14.07,6.58,13.94,14.41"/>
  <line class="cls-1" x1="783.67" y1="312.23" x2="769.51" y2="312.23"/>
  <line class="cls-1" x1="769.51" y1="326.4" x2="769.51" y2="312.23"/>
  <path class="cls-1" d="m783.67,312.23c0,7.83-6.35,14.17-14.17,14.17"/>
  <line class="cls-1" x1="1026.55" y1="241.36" x2="1026.32" y2="255.53"/>
  <line class="cls-1" x1="1040.48" y1="256" x2="1026.32" y2="255.76"/>
  <path class="cls-1" d="m1026.55,241.36c7.83.13,14.07,6.58,13.94,14.41"/>
  <line class="cls-1" x1="1119.55" y1="204.51" x2="1105.37" y2="204.51"/>
  <line class="cls-1" x1="1105.37" y1="218.67" x2="1105.37" y2="204.51"/>
  <path class="cls-1" d="m1119.55,204.51c0,7.83-6.35,14.17-14.17,14.17"/>
  <line class="cls-1" x1="1105.6" y1="179" x2="1105.37" y2="193.17"/>
  <line class="cls-1" x1="1119.78" y1="193.39" x2="1105.6" y2="193.17"/>
  <path class="cls-1" d="m1105.84,179c7.83.13,14.07,6.58,13.94,14.41"/>
  <line class="cls-1" x1="1105.37" y1="65.6" x2="1105.14" y2="79.77"/>
  <line class="cls-1" x1="1119.55" y1="80.02" x2="1105.37" y2="79.77"/>
  <path class="cls-1" d="m1105.6,65.6c7.83.13,14.07,6.58,13.94,14.41"/>
  <g>
    <line class="cls-1" x1="1059.68" y1="85.45" x2="1073.84" y2="85.45"/>
    <line class="cls-1" x1="1073.84" y1="71.27" x2="1073.84" y2="85.45"/>
    <path class="cls-1" d="m1059.68,85.45c0-7.83,6.35-14.17,14.17-14.17"/>
  </g>
  <line class="cls-1" x1="906.41" y1="312.23" x2="906.41" y2="397.06"/>
  <line class="cls-1" x1="906.95" y1="312.63" x2="935.47" y2="312.63"/>
  <line class="cls-1" x1="905.62" y1="86.57" x2="934.14" y2="86.57"/>
  <line class="cls-1" x1="906.88" y1="1.15" x2="906.88" y2="85.99"/>
</svg>