<?xml version="1.0" encoding="UTF-8"?>
<svg id="Calque_1" data-name="Calque 1" xmlns="http://www.w3.org/2000/svg" viewBox="0 0 1162.45 397.1">
  <defs>
    <style>
      .cls-1, .cls-2, .cls-3, .cls-4, .cls-5, .cls-6, .cls-7 {
        stroke: #1d1d1b;
        stroke-miterlimit: 10;
        stroke-width: .25px;
      }

      .cls-1, .cls-8 {
        fill: none;
      }

      .cls-9 {
        letter-spacing: 0em;
      }

      .cls-10 {
        letter-spacing: 0em;
      }

      .cls-11 {
        letter-spacing: .02em;
      }

      .cls-12, .cls-4 {
        fill: #f7c5dd;
      }

      .cls-13 {
        letter-spacing: -.04em;
      }

      .cls-2 {
        fill: #fff;
      }

      .cls-14 {
        letter-spacing: -.03em;
      }

      .cls-15 {
        letter-spacing: 0em;
      }

      .cls-16 {
        letter-spacing: -.06em;
      }

      .cls-3 {
        fill: #e94e1b;
      }

      .cls-17 {
        letter-spacing: .02em;
      }

      .cls-18 {
        letter-spacing: 0em;
      }

      .cls-19 {
        letter-spacing: 0em;
      }

      .cls-5 {
        fill: #8ecbb5;
      }

      .cls-6 {
        fill: #e6332a;
      }

      .cls-7 {
        fill: #c8d972;
      }

      .cls-20 {
        letter-spacing: 0em;
      }

      .cls-21 {
        fill: #1d1d1b;
        font-family: MyriadPro-Regular, 'Myriad Pro';
        font-size: 12px;
      }

      .cls-22 {
        letter-spacing: -.03em;
      }

      .cls-23 {
        letter-spacing: 0em;
      }

      .cls-24 {
        letter-spacing: -.07em;
      }
    </style>
  </defs>
  <line class="cls-2" x1="256.07" y1="170.33" x2="255.24" y2="255.24"/>
  <rect class="cls-7" x="255.24" y="141.86" width="85.04" height="113.39"/>
  <rect class="cls-5" x="340.28" y="141.86" width="113.39" height="113.39"/>
  <rect class="cls-3" x="453.67" y="170.2" width="28.35" height="56.69"/>
  <rect class="cls-1" x="283.59" y="340.28" width="28.35" height="28.35"/>
  <rect class="cls-4" x="340.28" y=".13" width="113.39" height="85.04"/>
  <rect class="cls-4" x="340.28" y="311.94" width="113.39" height="85.04"/>
  <rect class="cls-5" x="567.05" y="141.86" width="85.04" height="113.39"/>
  <rect class="cls-5" x="708.79" y="141.86" width="85.04" height="113.39"/>
  <rect class="cls-4" x="907.21" y=".13" width="85.04" height="85.04"/>
  <line class="cls-4" x1="255.24" y1=".13" x2="340.28" y2=".13"/>
  <line class="cls-1" x1="453.67" y1=".13" x2="567.05" y2=".13"/>
  <line class="cls-1" x1="793.83" y1=".13" x2="907.21" y2=".13"/>
  <line class="cls-1" x1="992.25" y1=".13" x2="1162.33" y2=".13"/>
  <line class="cls-1" x1="1162.33" y1="141.86" x2="1162.33" y2=".13"/>
  <line class="cls-1" x1="992.25" y1="396.98" x2="1048.94" y2="396.98"/>
  <line class="cls-1" x1="1048.94" y1="255.24" x2="1048.94" y2="396.98"/>
  <line class="cls-1" x1="907.21" y1="396.98" x2="793.83" y2="396.98"/>
  <line class="cls-1" x1="567.05" y1="396.98" x2="453.67" y2="396.98"/>
  <line class="cls-1" x1="283.59" y1="365.79" x2="289.26" y2="365.79"/>
  <line class="cls-1" x1="289.26" y1="360.12" x2="289.26" y2="365.79"/>
  <line class="cls-1" x1="294.93" y1="360.12" x2="289.26" y2="360.12"/>
  <line class="cls-1" x1="294.93" y1="354.46" x2="294.93" y2="360.12"/>
  <line class="cls-1" x1="300.6" y1="354.46" x2="294.93" y2="354.46"/>
  <line class="cls-1" x1="300.6" y1="348.79" x2="300.6" y2="354.46"/>
  <line class="cls-1" x1="306.27" y1="348.79" x2="300.6" y2="348.79"/>
  <line class="cls-1" x1="306.27" y1="343.12" x2="306.27" y2="348.79"/>
  <line class="cls-1" x1="311.94" y1="343.12" x2="306.27" y2="343.12"/>
  <rect class="cls-7" x="907.21" y="311.94" width="85.04" height="85.04"/>
  <rect class="cls-5" x="907.21" y="141.86" width="85.04" height="113.39"/>
  <rect class="cls-3" x="878.87" y="170.2" width="28.35" height="56.69"/>
  <rect class="cls-5" x="1048.94" y="113.51" width="113.39" height="141.73"/>
  <rect class="cls-2" x="1048.94" y="28.47" width="56.69" height="28.35"/>
  <rect class="cls-3" x="1105.64" y="28.47" width="28.35" height="28.35"/>
  <rect class="cls-1" x="283.59" y="28.47" width="28.35" height="28.35"/>
  <line class="cls-1" x1="283.59" y1="53.98" x2="289.26" y2="53.98"/>
  <line class="cls-1" x1="289.26" y1="48.31" x2="289.26" y2="53.98"/>
  <line class="cls-1" x1="294.93" y1="48.31" x2="289.26" y2="48.31"/>
  <line class="cls-1" x1="294.93" y1="42.64" x2="294.93" y2="48.31"/>
  <line class="cls-1" x1="300.6" y1="42.64" x2="294.93" y2="42.64"/>
  <line class="cls-1" x1="300.6" y1="36.98" x2="300.6" y2="42.64"/>
  <line class="cls-1" x1="306.27" y1="36.98" x2="300.6" y2="36.98"/>
  <line class="cls-1" x1="306.27" y1="31.31" x2="306.27" y2="36.98"/>
  <line class="cls-1" x1="311.94" y1="31.31" x2="306.27" y2="31.31"/>
  <rect class="cls-1" x="482.01" y="28.47" width="28.35" height="28.35"/>
  <line class="cls-1" x1="482.01" y1="53.98" x2="487.68" y2="53.98"/>
  <line class="cls-1" x1="487.68" y1="48.31" x2="487.68" y2="53.98"/>
  <line class="cls-1" x1="493.35" y1="48.31" x2="487.68" y2="48.31"/>
  <line class="cls-1" x1="493.35" y1="42.64" x2="493.35" y2="48.31"/>
  <line class="cls-1" x1="499.02" y1="42.64" x2="493.35" y2="42.64"/>
  <line class="cls-1" x1="499.02" y1="36.98" x2="499.02" y2="42.64"/>
  <line class="cls-1" x1="504.69" y1="36.98" x2="499.02" y2="36.98"/>
  <line class="cls-1" x1="504.69" y1="31.31" x2="504.69" y2="36.98"/>
  <line class="cls-1" x1="510.36" y1="31.31" x2="504.69" y2="31.31"/>
  <rect class="cls-1" x="482.01" y="340.28" width="28.35" height="28.35"/>
  <line class="cls-1" x1="482.01" y1="365.79" x2="487.68" y2="365.79"/>
  <line class="cls-1" x1="487.68" y1="360.12" x2="487.68" y2="365.79"/>
  <line class="cls-1" x1="493.35" y1="360.12" x2="487.68" y2="360.12"/>
  <line class="cls-1" x1="493.35" y1="354.46" x2="493.35" y2="360.12"/>
  <line class="cls-1" x1="499.02" y1="354.46" x2="493.35" y2="354.46"/>
  <line class="cls-1" x1="499.02" y1="348.79" x2="499.02" y2="354.46"/>
  <line class="cls-1" x1="504.69" y1="348.79" x2="499.02" y2="348.79"/>
  <line class="cls-1" x1="504.69" y1="343.12" x2="504.69" y2="348.79"/>
  <line class="cls-1" x1="510.36" y1="343.12" x2="504.69" y2="343.12"/>
  <rect class="cls-1" x="652.09" y="198.55" width="28.35" height="28.35"/>
  <line class="cls-1" x1="652.09" y1="224.06" x2="657.76" y2="224.06"/>
  <line class="cls-1" x1="657.76" y1="218.39" x2="657.76" y2="224.06"/>
  <line class="cls-1" x1="663.43" y1="218.39" x2="657.76" y2="218.39"/>
  <line class="cls-1" x1="663.43" y1="212.72" x2="663.43" y2="218.39"/>
  <line class="cls-1" x1="669.1" y1="212.72" x2="663.43" y2="212.72"/>
  <line class="cls-1" x1="669.1" y1="207.05" x2="669.1" y2="212.72"/>
  <line class="cls-1" x1="674.77" y1="207.05" x2="669.1" y2="207.05"/>
  <line class="cls-1" x1="674.77" y1="201.38" x2="674.77" y2="207.05"/>
  <line class="cls-1" x1="680.44" y1="201.38" x2="674.77" y2="201.38"/>
  <rect class="cls-1" x="680.44" y="170.2" width="28.35" height="28.35"/>
  <line class="cls-1" x1="680.44" y1="195.72" x2="686.11" y2="195.72"/>
  <line class="cls-1" x1="686.11" y1="190.05" x2="686.11" y2="195.72"/>
  <line class="cls-1" x1="691.78" y1="190.05" x2="686.11" y2="190.05"/>
  <line class="cls-1" x1="691.78" y1="184.38" x2="691.78" y2="190.05"/>
  <line class="cls-1" x1="697.45" y1="184.38" x2="691.78" y2="184.38"/>
  <line class="cls-1" x1="697.45" y1="178.71" x2="697.45" y2="184.38"/>
  <line class="cls-1" x1="703.12" y1="178.71" x2="697.45" y2="178.71"/>
  <line class="cls-1" x1="703.12" y1="173.04" x2="703.12" y2="178.71"/>
  <line class="cls-1" x1="708.79" y1="173.04" x2="703.12" y2="173.04"/>
  <rect class="cls-1" x="850.52" y="340.28" width="28.35" height="28.35"/>
  <line class="cls-1" x1="850.52" y1="365.79" x2="856.19" y2="365.79"/>
  <line class="cls-1" x1="856.19" y1="360.12" x2="856.19" y2="365.79"/>
  <line class="cls-1" x1="861.86" y1="360.12" x2="856.19" y2="360.12"/>
  <line class="cls-1" x1="861.86" y1="354.46" x2="861.86" y2="360.12"/>
  <line class="cls-1" x1="867.53" y1="354.46" x2="861.86" y2="354.46"/>
  <line class="cls-1" x1="867.53" y1="348.79" x2="867.53" y2="354.46"/>
  <line class="cls-1" x1="873.2" y1="348.79" x2="867.53" y2="348.79"/>
  <line class="cls-1" x1="873.2" y1="343.12" x2="873.2" y2="348.79"/>
  <line class="cls-1" x1="878.87" y1="343.12" x2="873.2" y2="343.12"/>
  <rect class="cls-1" x="850.52" y="28.47" width="28.35" height="28.35"/>
  <line class="cls-1" x1="850.52" y1="53.98" x2="856.19" y2="53.98"/>
  <line class="cls-1" x1="856.19" y1="48.31" x2="856.19" y2="53.98"/>
  <line class="cls-1" x1="861.86" y1="48.31" x2="856.19" y2="48.31"/>
  <line class="cls-1" x1="861.86" y1="42.64" x2="861.86" y2="48.31"/>
  <line class="cls-1" x1="867.53" y1="42.64" x2="861.86" y2="42.64"/>
  <line class="cls-1" x1="867.53" y1="36.98" x2="867.53" y2="42.64"/>
  <line class="cls-1" x1="873.2" y1="36.98" x2="867.53" y2="36.98"/>
  <line class="cls-1" x1="873.2" y1="31.31" x2="873.2" y2="36.98"/>
  <line class="cls-1" x1="878.87" y1="31.31" x2="873.2" y2="31.31"/>
  <rect class="cls-1" x="992.25" y="340.28" width="28.35" height="28.35"/>
  <line class="cls-1" x1="992.25" y1="365.79" x2="997.92" y2="365.79"/>
  <line class="cls-1" x1="997.92" y1="360.12" x2="997.92" y2="365.79"/>
  <line class="cls-1" x1="1003.59" y1="360.12" x2="997.92" y2="360.12"/>
  <line class="cls-1" x1="1003.59" y1="354.46" x2="1003.59" y2="360.12"/>
  <line class="cls-1" x1="1009.26" y1="354.46" x2="1003.59" y2="354.46"/>
  <line class="cls-1" x1="1009.26" y1="348.79" x2="1009.26" y2="354.46"/>
  <line class="cls-1" x1="1014.93" y1="348.79" x2="1009.26" y2="348.79"/>
  <line class="cls-1" x1="1014.93" y1="343.12" x2="1014.93" y2="348.79"/>
  <line class="cls-1" x1="1020.6" y1="343.12" x2="1014.93" y2="343.12"/>
  <rect class="cls-1" x="992.25" y="28.47" width="28.35" height="28.35"/>
  <line class="cls-1" x1="992.25" y1="53.98" x2="997.92" y2="53.98"/>
  <line class="cls-1" x1="997.92" y1="48.31" x2="997.92" y2="53.98"/>
  <line class="cls-1" x1="1003.59" y1="48.31" x2="997.92" y2="48.31"/>
  <line class="cls-1" x1="1003.59" y1="42.64" x2="1003.59" y2="48.31"/>
  <line class="cls-1" x1="1009.26" y1="42.64" x2="1003.59" y2="42.64"/>
  <line class="cls-1" x1="1009.26" y1="36.98" x2="1009.26" y2="42.64"/>
  <line class="cls-1" x1="1014.93" y1="36.98" x2="1009.26" y2="36.98"/>
  <line class="cls-1" x1="1014.93" y1="31.31" x2="1014.93" y2="36.98"/>
  <line class="cls-1" x1="1020.6" y1="31.31" x2="1014.93" y2="31.31"/>
  <line class="cls-1" x1="261.37" y1="240.84" x2="261.13" y2="255.01"/>
  <line class="cls-1" x1="275.3" y1="255.48" x2="261.13" y2="255.24"/>
  <path class="cls-1" d="m261.37,240.84c7.83.13,14.07,6.58,13.94,14.41"/>
  <line class="cls-1" x1="567.05" y1="150.36" x2="566.82" y2="164.53"/>
  <line class="cls-1" x1="581.23" y1="164.77" x2="567.05" y2="164.53"/>
  <path class="cls-1" d="m567.29,150.36c7.83.13,14.07,6.58,13.94,14.41"/>
  <line class="cls-1" x1="581.23" y1="232.57" x2="567.05" y2="232.57"/>
  <line class="cls-1" x1="567.05" y1="246.74" x2="567.05" y2="232.57"/>
  <path class="cls-1" d="m581.23,232.57c0,7.83-6.35,14.17-14.17,14.17"/>
  <line class="cls-1" x1="453.67" y1="246.74" x2="453.67" y2="232.57"/>
  <line class="cls-1" x1="439.5" y1="232.57" x2="453.67" y2="232.57"/>
  <path class="cls-1" d="m453.67,246.74c-7.83,0-14.17-6.35-14.17-14.17"/>
  <line class="cls-1" x1="439.5" y1="164.53" x2="453.67" y2="164.53"/>
  <line class="cls-1" x1="453.67" y1="150.36" x2="453.67" y2="164.53"/>
  <path class="cls-1" d="m439.5,164.53c0-7.83,6.35-14.17,14.17-14.17"/>
  <line class="cls-1" x1="986.58" y1="326.11" x2="986.58" y2="311.94"/>
  <line class="cls-1" x1="972.41" y1="311.94" x2="986.58" y2="311.94"/>
  <path class="cls-1" d="m986.58,326.11c-7.83,0-14.17-6.35-14.17-14.17"/>
  <line class="cls-1" x1="921.38" y1="232.57" x2="907.21" y2="232.57"/>
  <line class="cls-1" x1="907.21" y1="246.74" x2="907.21" y2="232.57"/>
  <path class="cls-1" d="m921.38,232.57c0,7.83-6.35,14.17-14.17,14.17"/>
  <line class="cls-1" x1="907.21" y1="147.53" x2="906.98" y2="161.7"/>
  <line class="cls-1" x1="921.38" y1="161.93" x2="907.21" y2="161.7"/>
  <path class="cls-1" d="m907.45,147.53c7.83.13,14.07,6.58,13.94,14.41"/>
  <g>
    <line class="cls-1" x1="779.65" y1="164.53" x2="793.83" y2="164.53"/>
    <line class="cls-1" x1="793.83" y1="150.36" x2="793.83" y2="164.53"/>
    <path class="cls-1" d="m779.65,164.53c0-7.83,6.35-14.17,14.17-14.17"/>
  </g>
  <line class="cls-1" x1="793.83" y1="246.74" x2="793.83" y2="232.57"/>
  <line class="cls-1" x1="779.65" y1="232.57" x2="793.83" y2="232.57"/>
  <path class="cls-1" d="m793.83,246.74c-7.83,0-14.17-6.35-14.17-14.17"/>
  <text class="cls-21" transform="translate(282.74 201.43)"><tspan x="0" y="0">071E</tspan></text>
  <text class="cls-21" transform="translate(353.91 48.31)"><tspan x="0" y="0">SE</tspan><tspan class="cls-17" x="11.82" y="0">R</tspan><tspan x="18.47" y="0">VICE SOCIAL</tspan></text>
  <text class="cls-21" transform="translate(385.03 201.38)"><tspan x="0" y="0">10E</tspan></text>
  <text class="cls-21" transform="translate(379.63 357.29)"><tspan x="0" y="0">M</tspan><tspan class="cls-18" x="9.65" y="0">E</tspan><tspan class="cls-16" x="15.66" y="0">V</tspan><tspan class="cls-20" x="21.67" y="0">A</tspan></text>
  <text class="cls-21" transform="translate(603.54 201.43)"><tspan x="0" y="0">9E</tspan></text>
  <text class="cls-21" transform="translate(744.75 201.43)"><tspan x="0" y="0">5C</tspan></text>
  <text class="cls-21" transform="translate(943.17 201.43)"><tspan x="0" y="0">4C</tspan></text>
  <text class="cls-21" transform="translate(943.06 39.81)"><tspan x="0" y="0">PC</tspan><tspan x="-18.47" y="14.4">SÉCURITÉ </tspan></text>
  <text class="cls-21" transform="translate(937.02 357.29)"><tspan x="0" y="0">027C</tspan></text>
  <text class="cls-21" transform="translate(1098.89 187.21)"><tspan x="0" y="0">1A</tspan></text>
  <line class="cls-1" x1="1049.18" y1="122.01" x2="1048.94" y2="136.19"/>
  <line class="cls-1" x1="1063.12" y1="136.42" x2="1048.94" y2="136.19"/>
  <path class="cls-1" d="m1049.18,122.01c7.83.13,14.07,6.58,13.94,14.41"/>
  <line class="cls-1" x1="1063.12" y1="229.73" x2="1048.94" y2="229.73"/>
  <line class="cls-1" x1="1048.94" y1="243.9" x2="1048.94" y2="229.73"/>
  <path class="cls-1" d="m1063.12,229.73c0,7.83-6.35,14.17-14.17,14.17"/>
  <circle class="cls-1" cx="236.04" cy="186" r="7.09"/>
  <polyline class="cls-12" points="255.24 .13 226.9 .12 226.9 85.16"/>
  <polyline class="cls-12" points="226.9 311.94 255.24 311.94 255.24 396.98"/>
  <polyline class="cls-12" points="255.24 .12 255.24 85.16 226.9 85.16"/>
  <polyline class="cls-12" points="226.9 311.94 226.9 396.98 255.24 396.98"/>
  <line class="cls-4" x1="226.9" y1="85.16" x2="255.24" y2="85.16"/>
  <line class="cls-4" x1="255.24" y1="311.94" x2="226.9" y2="311.94"/>
  <polygon class="cls-2" points="255.24 255.24 226.9 255.24 227.72 170.33 256.07 170.33 255.24 255.24"/>
  <rect class="cls-6" x="226.9" y="141.86" width="28.35" height="28.35"/>
  <rect class="cls-1" x="793.83" y="28.47" width="28.35" height="28.35"/>
  <line class="cls-1" x1="793.83" y1="53.98" x2="799.5" y2="53.98"/>
  <line class="cls-1" x1="799.5" y1="48.31" x2="799.5" y2="53.98"/>
  <line class="cls-1" x1="805.16" y1="48.31" x2="799.5" y2="48.31"/>
  <line class="cls-1" x1="805.16" y1="42.64" x2="805.16" y2="48.31"/>
  <line class="cls-1" x1="810.83" y1="42.64" x2="805.16" y2="42.64"/>
  <line class="cls-1" x1="810.83" y1="36.98" x2="810.83" y2="42.64"/>
  <line class="cls-1" x1="816.5" y1="36.98" x2="810.83" y2="36.98"/>
  <line class="cls-1" x1="816.5" y1="31.31" x2="816.5" y2="36.98"/>
  <line class="cls-1" x1="822.17" y1="31.31" x2="816.5" y2="31.31"/>
  <rect class="cls-1" x="538.71" y="28.47" width="28.35" height="28.35"/>
  <line class="cls-1" x1="538.71" y1="53.98" x2="544.38" y2="53.98"/>
  <line class="cls-1" x1="544.38" y1="48.31" x2="544.38" y2="53.98"/>
  <line class="cls-1" x1="550.05" y1="48.31" x2="544.38" y2="48.31"/>
  <line class="cls-1" x1="550.05" y1="42.64" x2="550.05" y2="48.31"/>
  <line class="cls-1" x1="555.72" y1="42.64" x2="550.05" y2="42.64"/>
  <line class="cls-1" x1="555.72" y1="36.98" x2="555.72" y2="42.64"/>
  <line class="cls-1" x1="561.38" y1="36.98" x2="555.72" y2="36.98"/>
  <line class="cls-1" x1="561.38" y1="31.31" x2="561.38" y2="36.98"/>
  <line class="cls-1" x1="567.05" y1="31.31" x2="561.38" y2="31.31"/>
  <rect class="cls-1" x="793.83" y="340.28" width="28.35" height="28.35"/>
  <line class="cls-1" x1="793.83" y1="365.79" x2="799.5" y2="365.79"/>
  <line class="cls-1" x1="799.5" y1="360.12" x2="799.5" y2="365.79"/>
  <line class="cls-1" x1="805.16" y1="360.12" x2="799.5" y2="360.12"/>
  <line class="cls-1" x1="805.16" y1="354.46" x2="805.16" y2="360.12"/>
  <line class="cls-1" x1="810.83" y1="354.46" x2="805.16" y2="354.46"/>
  <line class="cls-1" x1="810.83" y1="348.79" x2="810.83" y2="354.46"/>
  <line class="cls-1" x1="816.5" y1="348.79" x2="810.83" y2="348.79"/>
  <line class="cls-1" x1="816.5" y1="343.12" x2="816.5" y2="348.79"/>
  <line class="cls-1" x1="822.17" y1="343.12" x2="816.5" y2="343.12"/>
  <rect class="cls-1" x="538.71" y="340.28" width="28.35" height="28.35"/>
  <line class="cls-1" x1="538.71" y1="365.79" x2="544.38" y2="365.79"/>
  <line class="cls-1" x1="544.38" y1="360.12" x2="544.38" y2="365.79"/>
  <line class="cls-1" x1="550.05" y1="360.12" x2="544.38" y2="360.12"/>
  <line class="cls-1" x1="550.05" y1="354.46" x2="550.05" y2="360.12"/>
  <line class="cls-1" x1="555.72" y1="354.46" x2="550.05" y2="354.46"/>
  <line class="cls-1" x1="555.72" y1="348.79" x2="555.72" y2="354.46"/>
  <line class="cls-1" x1="561.38" y1="348.79" x2="555.72" y2="348.79"/>
  <line class="cls-1" x1="561.38" y1="343.12" x2="561.38" y2="348.79"/>
  <line class="cls-1" x1="567.05" y1="343.12" x2="561.38" y2="343.12"/>
  <rect class="cls-4" x="567.05" y="311.94" width="226.77" height="85.04"/>
  <rect class="cls-4" x="567.05" y=".12" width="226.77" height="85.04"/>
  <line class="cls-4" x1="226.9" y1="396.98" x2="255.24" y2="396.98"/>
  <line class="cls-4" x1="255.24" y1="396.98" x2="255.24" y2="311.94"/>
  <line class="cls-4" x1="255.24" y1="85.16" x2="255.24" y2=".12"/>
  <line class="cls-4" x1="226.9" y1=".13" x2="255.24" y2=".13"/>
  <line class="cls-8" x1=".13" y1=".12" x2=".12" y2="396.98"/>
  <rect class="cls-4" x=".12" y=".12" width="226.77" height="396.85"/>
  <text class="cls-21" transform="translate(42.45 201.38) scale(1.19 1)"><tspan x="0" y="0">RES</tspan><tspan class="cls-24" x="18.28" y="0">T</tspan><tspan class="cls-14" x="23.34" y="0">A</tspan><tspan class="cls-9" x="30.35" y="0">U</tspan><tspan class="cls-15" x="38.11" y="0">R</tspan><tspan x="44.63" y="0">ANT C</tspan><tspan class="cls-23" x="75.33" y="0">R</tspan><tspan x="81.83" y="0">OUS</tspan></text>
  <text class="cls-21" transform="translate(636.42 360.12) scale(1.18 1)"><tspan x="0" y="0">B</tspan><tspan class="cls-11" x="6.5" y="0">É</tspan><tspan class="cls-22" x="12.6" y="0">T</tspan><tspan x="18.24" y="0">ONSA</tspan><tspan class="cls-13" x="47.66" y="0">L</tspan><tspan class="cls-10" x="52.86" y="0">ON</tspan></text>
  <line class="cls-1" x1="255.24" y1="396.98" x2="340.28" y2="396.98"/>
  <text class="cls-21" transform="translate(634.91 46.38)"><tspan x="0" y="0">RELAIS HANDI</tspan><tspan class="cls-19" x="70.62" y="0">C</tspan><tspan x="77.63" y="0">AP</tspan></text>
</svg>